# xmcd
#
# Track frame offsets: 
#        150
#        14387
#        28034
#        39975
#        55818
#        60080
#        75228
#        93285
#        108300
#        133322
#        141216
#        161267
#
# Disc length: 2353 seconds
#
# Revision: 1
# Processed by: cddbd v1.5.2PL0 Copyright (c) Steve Scherf et al.
# Submitted via: ExactAudioCopy v1.0b4
#
DISCID=89092f0c
DTITLE=Ghost Town Blues Band - Hard Road To Hoe
DYEAR=2015
DGENRE=Blues
TTITLE0=Hard Road To Hoe
TTITLE1=Big Shirley
TTITLE2=Tip Of My Hat (Featuring Brandon Santini)
TTITLE3=My Doggy (Featuring Brandon Santini)
TTITLE4=Mr. Handy Man
TTITLE5=Hate To See Her Go
TTITLE6=Tied My Worries To A Stone
TTITLE7=Dead Sea
TTITLE8=Nothin' But Time
TTITLE9=Dime In The Well
TTITLE10=Seventeen
TTITLE11=Road Still Drives The Same
EXTD=
EXTT0=
EXTT1=
EXTT2=
EXTT3=
EXTT4=
EXTT5=
EXTT6=
EXTT7=
EXTT8=
EXTT9=
EXTT10=
EXTT11=
PLAYORDER=
